# File created by Blade
# Date/Time:  Tue Jan 27 18:50:05 2015
# Frame Rate: 120.000 fps
#------------------------------------------------------
:FULLY-SPECIFIED
:DEGREES
1669
root -1.025044 32.012433 -6.964399 1.872972 -0.968372 -18.461877
Spine 8.845411 -3.352360 8.120751
Head 5.139857 -26.553491 13.801801
LeftShoulder -15.413701 15.307978 16.299657
LeftArm 12.266640 -29.894347 -68.630558
LeftForeArm -7.763982 -0.000000 127.607700
LeftHand -20.398190 -0.000000 22.647797
LeftHandThumb1 -26.253704 0.000000 33.147579
RightShoulder -12.478647 -1.707389 -7.179211
RightArm 16.278026 -26.066859 63.487186
RightForeArm -29.026775 0.000000 23.904872
RightHand -15.052465 -0.000000 10.168567
RightHandThumb1 -24.326973 -0.000000 -32.862282
LeftUpLeg -11.994562 11.336954 6.362882
LeftLeg 26.920486 -0.000000 -0.000000
LeftFoot -35.335047 27.653484 -23.481245
LeftToeBase 6.849586 -0.000000 -0.000000
RightUpLeg -79.426105 -23.648249 4.712597
RightLeg 91.450517 -0.000000 -0.000000
RightFoot -12.373747 -12.845567 25.142309
RightToeBase 15.710716 -0.000000 -0.000000
1670
root -1.063656 32.079648 -6.946246 1.983271 -0.355294 -19.227934
Spine 8.527780 -3.677639 8.977994
Head 5.287642 -27.067977 14.022005
LeftShoulder -15.325056 15.408338 16.373488
LeftArm 12.316234 -29.353129 -68.660305
LeftForeArm -7.576633 -0.000000 127.412068
LeftHand -20.352008 -0.000000 22.840548
LeftHandThumb1 -26.253704 0.000000 33.147579
RightShoulder -12.701807 -1.832300 -6.965565
RightArm 16.142909 -25.907634 63.452763
RightForeArm -28.846746 -0.000000 23.925850
RightHand -15.041268 -0.000000 10.750901
RightHandThumb1 -24.326973 -0.000000 -32.862282
LeftUpLeg -12.177797 11.218119 7.235912
LeftLeg 26.865257 -0.000000 -0.000000
LeftFoot -35.049715 27.202620 -23.438276
LeftToeBase 6.713031 -0.000000 -0.000000
RightUpLeg -77.862358 -23.048760 2.550159
RightLeg 91.571457 -0.000000 -0.000000
RightFoot -11.019016 -13.340641 23.762764
RightToeBase 16.317477 -0.000000 -0.000000
1671
root -1.093005 32.144004 -6.929332 2.076020 0.300057 -19.891527
Spine 8.213767 -4.040145 9.731849
Head 5.420205 -27.571414 14.270140
LeftShoulder -15.241028 15.570578 16.470863
LeftArm 12.435064 -28.828765 -68.790013
LeftForeArm -7.388792 -0.000000 127.175582
LeftHand -20.168812 -0.000000 23.052519
LeftHandThumb1 -26.253704 0.000000 33.147579
RightShoulder -12.917444 -1.991424 -6.753256
RightArm 16.003435 -25.779700 63.468680
RightForeArm -28.855228 -0.000000 23.919348
RightHand -15.046762 -0.000000 10.414156
RightHandThumb1 -24.326973 -0.000000 -32.862282
LeftUpLeg -12.348849 11.107425 7.987730
LeftLeg 26.757818 -0.000000 -0.000000
LeftFoot -34.721003 26.746263 -23.368857
LeftToeBase 6.756070 -0.000000 -0.000000
RightUpLeg -76.355887 -22.446806 0.348432
RightLeg 91.796609 -0.000000 -0.000000
RightFoot -9.331480 -13.767545 22.200327
RightToeBase 16.451253 -0.000000 -0.000000
1672
root -1.115736 32.204452 -6.910659 2.182637 0.973923 -20.464248
Spine 7.866263 -4.439932 10.387266
Head 5.535750 -28.057399 14.519867
LeftShoulder -15.181010 15.654209 16.592183
LeftArm 12.457978 -28.320392 -68.866879
LeftForeArm -7.124289 -0.000000 126.956301
LeftHand -20.204937 0.000000 23.201858
LeftHandThumb1 -26.253704 0.000000 33.147579
RightShoulder -13.130588 -2.212685 -6.535457
RightArm 15.898441 -25.600985 63.505231
RightForeArm -29.008009 -0.000000 23.929153
RightHand -15.133270 0.000000 10.527834
RightHandThumb1 -24.326973 -0.000000 -32.862282
LeftUpLeg -12.536828 10.965962 8.634255
LeftLeg 26.630365 -0.000000 -0.000000
LeftFoot -34.405051 26.248099 -23.349496
LeftToeBase 6.801951 -0.000000 -0.000000
RightUpLeg -74.920452 -21.814219 -1.879347
RightLeg 92.083288 -0.000000 -0.000000
RightFoot -7.669453 -14.092612 20.859175
RightToeBase 16.818753 -0.000000 -0.000000
1673
root -1.145335 32.268369 -6.893005 2.299508 1.697195 -21.063726
Spine 7.499409 -4.839228 11.062963
Head 5.568374 -28.558137 14.829608
LeftShoulder -15.096139 15.706276 16.706617
LeftArm 12.520497 -27.859529 -68.951454
LeftForeArm -6.865179 -0.000000 126.691752
LeftHand -20.178135 -0.000000 23.527096
LeftHandThumb1 -26.253704 0.000000 33.147579
RightShoulder -13.382165 -2.317068 -6.304125
RightArm 15.652080 -25.436613 63.597256
RightForeArm -29.153512 -0.000000 23.954050
RightHand -15.119386 -0.000000 10.486374
RightHandThumb1 -24.326973 -0.000000 -32.862282
LeftUpLeg -12.771758 10.935559 9.315039
LeftLeg 26.511858 -0.000000 -0.000000
LeftFoot -34.037313 25.585084 -23.331341
LeftToeBase 6.821721 -0.000000 -0.000000
RightUpLeg -73.528565 -21.150896 -3.981441
RightLeg 92.423597 -0.000000 -0.000000
RightFoot -6.317061 -14.340306 19.668271
RightToeBase 17.672887 -0.000000 -0.000000
1674
root -1.171982 32.331082 -6.876474 2.425752 2.459447 -21.595799
Spine 7.109625 -5.243222 11.667514
Head 5.568262 -29.065217 15.162300
LeftShoulder -14.967204 15.719728 16.797105
LeftArm 12.516023 -27.485072 -68.912510
LeftForeArm -6.627814 -0.000000 126.428449
LeftHand -20.139228 0.000000 23.704133
LeftHandThumb1 -26.253704 0.000000 33.147579
RightShoulder -13.636410 -2.452798 -6.042692
RightArm 15.403091 -25.159318 63.692379
RightForeArm -29.146799 -0.000000 24.002802
RightHand -15.225915 -0.000000 10.671170
RightHandThumb1 -24.326973 -0.000000 -32.862282
LeftUpLeg -13.038884 10.862677 9.929351
LeftLeg 26.381898 -0.000000 -0.000000
LeftFoot -33.617798 24.911825 -23.294090
LeftToeBase 6.875968 -0.000000 -0.000000
RightUpLeg -72.172019 -20.469475 -6.054273
RightLeg 92.822539 -0.000000 -0.000000
RightFoot -5.552227 -14.641601 18.316824
RightToeBase 18.642084 -0.000000 -0.000000
1675
root -1.190918 32.387749 -6.857324 2.516315 3.296411 -22.024927
Spine 6.738773 -5.774243 12.169972
Head 5.537753 -29.519430 15.499750
LeftShoulder -14.850496 15.724345 16.893313
LeftArm 12.477062 -27.215201 -68.911477
LeftForeArm -6.580533 -0.000000 126.175931
LeftHand -20.108866 0.000000 23.708094
LeftHandThumb1 -26.253704 0.000000 33.147579
RightShoulder -13.853640 -2.656393 -5.791221
RightArm 15.245616 -24.851900 63.783695
RightForeArm -28.882724 -0.000000 24.014753
RightHand -15.235936 0.000000 10.722977
RightHandThumb1 -24.326973 -0.000000 -32.862282
LeftUpLeg -13.294681 10.648774 10.418040
LeftLeg 26.246499 -0.000000 -0.000000
LeftFoot -33.226291 24.323831 -23.273864
LeftToeBase 6.888539 -0.000000 -0.000000
RightUpLeg -70.850867 -19.909488 -8.060897
RightLeg 93.307696 -0.000000 -0.000000
RightFoot -5.243636 -15.385948 16.539623
RightToeBase 19.120443 -0.000000 -0.000000
1676
root -1.208750 32.441433 -6.838445 2.567582 4.117982 -22.375625
Spine 6.423920 -6.247770 12.568810
Head 5.456551 -30.001637 15.857900
LeftShoulder -14.683091 15.730556 17.021914
LeftArm 12.494305 -27.022426 -68.949234
LeftForeArm -6.506105 -0.000000 125.880504
LeftHand -20.018428 0.000000 23.737905
LeftHandThumb1 -26.253704 0.000000 33.147579
RightShoulder -14.074568 -2.764011 -5.566302
RightArm 14.926475 -24.651582 63.971369
RightForeArm -28.904153 -0.000000 24.029075
RightHand -15.163441 -0.000000 10.606868
RightHandThumb1 -24.326973 -0.000000 -32.862282
LeftUpLeg -13.518930 10.472293 10.820161
LeftLeg 26.119299 -0.000000 -0.000000
LeftFoot -32.869099 23.692931 -23.347669
LeftToeBase 7.199515 -0.000000 -0.000000
RightUpLeg -69.547417 -19.314108 -10.020500
RightLeg 93.843269 -0.000000 -0.000000
RightFoot -5.529879 -16.775822 15.279208
RightToeBase 19.084367 -0.000000 -0.000000
1677
root -1.228963 32.496596 -6.816862 2.625937 4.952443 -22.764256
Spine 6.074627 -6.733458 13.028864
Head 5.370492 -30.468520 16.176381
LeftShoulder -14.512769 15.745954 17.071945
LeftArm 12.524626 -26.919521 -68.927451
LeftForeArm -6.479326 0.000000 125.590721
LeftHand -20.000077 -0.000000 23.742565
LeftHandThumb1 -26.253704 0.000000 33.147579
RightShoulder -14.312458 -2.963216 -5.364791
RightArm 14.677693 -24.593001 64.154977
RightForeArm -29.485989 0.000000 24.017964
RightHand -15.255964 -0.000000 10.078886
RightHandThumb1 -24.326973 -0.000000 -32.862282
LeftUpLeg -13.744634 10.214810 11.276533
LeftLeg 25.947687 -0.000000 -0.000000
LeftFoot -32.439140 23.205550 -23.315143
LeftToeBase 7.022521 -0.000000 -0.000000
RightUpLeg -68.281836 -18.691280 -11.792363
RightLeg 94.390151 -0.000000 -0.000000
RightFoot -6.086944 -18.728132 14.293496
RightToeBase 18.662574 -0.000000 -0.000000
1678
root -1.246703 32.545223 -6.794412 2.657032 5.743816 -23.098631
Spine 5.762121 -7.227008 13.419050
Head 5.302907 -30.858439 16.448640
LeftShoulder -14.408073 15.791545 17.128698
LeftArm 12.596597 -26.774353 -68.891669
LeftForeArm -6.413313 -0.000000 125.261008
LeftHand -19.932443 -0.000000 23.882225
LeftHandThumb1 -26.253704 0.000000 33.147579
RightShoulder -14.504761 -3.179789 -5.165249
RightArm 14.499142 -24.400852 64.322807
RightForeArm -29.536696 -0.000000 24.008045
RightHand -15.349220 -0.000000 10.106371
RightHandThumb1 -24.326973 -0.000000 -32.862282
LeftUpLeg -13.975975 10.032409 11.660607
LeftLeg 25.855580 -0.000000 -0.000000
LeftFoot -32.023672 22.655371 -23.258876
LeftToeBase 6.969102 -0.000000 -0.000000
RightUpLeg -67.063073 -18.024827 -13.524069
RightLeg 94.981027 -0.000000 -0.000000
RightFoot -7.004211 -21.055286 13.784659
RightToeBase 19.426440 -0.000000 -0.000000
